<?xml version="1.0" encoding="UTF-8"?>
<!DOCTYPE svg PUBLIC "-//W3C//DTD SVG 1.1//EN" "http://www.w3.org/Graphics/SVG/1.1/DTD/svg11.dtd">
<svg xmlns="http://www.w3.org/2000/svg" version="1.1" width="877px" height="496px" style="shape-rendering:geometricPrecision; text-rendering:geometricPrecision; image-rendering:optimizeQuality; fill-rule:evenodd; clip-rule:evenodd" xmlns:xlink="http://www.w3.org/1999/xlink">
<style>
  :root { --logo-color: #0f172a; }
  @media (prefers-color-scheme: dark) { :root { --logo-color: #f9faf9; } }
  path { fill: var(--logo-color) !important; }
</style>
<g><path style="opacity:1" fill="#f9faf9" d="M 377.5,169.5 C 376.167,167.5 374.5,165.833 372.5,164.5C 369.5,160.833 366.167,157.5 362.5,154.5C 357.167,148.5 351.5,142.833 345.5,137.5C 311.988,105.822 279.155,73.1554 247,39.5C 246.028,37.6951 244.861,36.0284 243.5,34.5C 243.709,33.914 244.043,33.414 244.5,33C 314.833,32.3333 385.167,32.3333 455.5,33C 456.665,104.096 456.831,175.263 456,246.5C 455.586,246.957 455.086,247.291 454.5,247.5C 444.53,239.703 436.03,231.037 429,221.5C 428.667,221.833 428.333,222.167 428,222.5C 427.102,219.519 425.102,216.853 422,214.5C 421.667,214.833 421.333,215.167 421,215.5C 420.517,214.552 420.351,213.552 420.5,212.5C 419.325,212.719 418.325,212.386 417.5,211.5C 403.919,197.454 390.585,183.454 377.5,169.5 Z"/></g>
<g><path style="opacity:1" fill="#f9faf9" d="M 345.5,137.5 C 344.833,138.167 344.833,138.167 345.5,137.5 Z"/></g>
<g><path style="opacity:1" fill="#f9faf9" d="M 812.5,330.5 C 808.833,333.5 805.5,336.833 802.5,340.5C 801.833,340.5 801.5,340.833 801.5,341.5C 800.833,341.5 800.5,341.833 800.5,342.5C 799.833,342.5 799.5,342.833 799.5,343.5C 798.833,343.5 798.5,343.833 798.5,344.5C 797.833,344.5 797.5,344.833 797.5,345.5C 796.167,346.167 795.167,347.167 794.5,348.5C 793.5,348.833 792.833,349.5 792.5,350.5C 791.833,350.5 791.5,350.833 791.5,351.5C 790.833,351.5 790.5,351.833 790.5,352.5C 789.833,352.5 789.5,352.833 789.5,353.5C 788.167,353.833 788.167,354.167 789.5,354.5C 788.5,356.167 787.167,357.5 785.5,358.5C 785.167,357.167 784.833,357.167 784.5,358.5C 783.833,358.5 783.5,358.833 783.5,359.5C 782.167,359.833 782.167,360.167 783.5,360.5C 777.523,366.806 772.19,372.472 767.5,377.5C 767.167,376.167 766.833,376.167 766.5,377.5C 765.833,377.5 765.5,377.833 765.5,378.5C 764.833,378.5 764.5,378.833 764.5,379.5C 763.833,379.5 763.5,379.833 763.5,380.5C 762.833,380.5 762.5,380.833 762.5,381.5C 761.833,381.5 761.5,381.833 761.5,382.5C 760.833,382.5 760.5,382.833 760.5,383.5C 759.833,383.5 759.5,383.833 759.5,384.5C 758.833,384.5 758.5,384.833 758.5,385.5C 757.833,385.5 757.5,385.833 757.5,386.5C 756.833,386.5 756.5,386.833 756.5,387.5C 755.833,387.5 755.5,387.833 755.5,388.5C 754.833,388.5 754.5,388.833 754.5,389.5C 753.833,389.5 753.5,389.833 753.5,390.5C 752.833,390.5 752.5,390.833 752.5,391.5C 751.833,391.5 751.5,391.833 751.5,392.5C 750.833,392.5 750.5,392.833 750.5,393.5C 749.833,393.5 749.5,393.833 749.5,394.5C 748.833,394.5 748.5,394.833 748.5,395.5C 747.833,395.5 747.5,395.833 747.5,396.5C 746.833,396.5 746.5,396.833 746.5,397.5C 745.833,397.5 745.5,397.833 745.5,398.5C 744.833,398.5 744.5,398.833 744.5,399.5C 743.833,399.5 743.5,399.833 743.5,400.5C 742.833,400.5 742.5,400.833 742.5,401.5C 741.833,401.5 741.5,401.833 741.5,402.5C 740.833,402.5 740.5,402.833 740.5,403.5C 739.833,403.5 739.5,403.833 739.5,404.5C 738.833,404.5 738.5,404.833 738.5,405.5C 737.833,405.5 737.5,405.833 737.5,406.5C 736.833,406.5 736.5,406.833 736.5,407.5C 735.833,407.5 735.5,407.833 735.5,408.5C 734.833,408.5 734.5,408.833 734.5,409.5C 733.833,409.5 733.5,409.833 733.5,410.5C 732.833,410.5 732.5,410.833 732.5,411.5C 731.833,411.5 731.5,411.833 731.5,412.5C 730.833,412.5 730.5,412.833 730.5,413.5C 729.833,413.5 729.5,413.833 729.5,414.5C 728.833,414.5 728.5,414.833 728.5,415.5C 727.833,415.5 727.5,415.833 727.5,416.5C 726.833,416.5 726.5,416.833 726.5,417.5C 725.833,417.5 725.5,417.833 725.5,418.5C 724.833,418.5 724.5,418.833 724.5,419.5C 723.167,419.833 723.167,420.167 724.5,420.5C 717.233,428.602 709.567,436.102 701.5,443C 697.63,446.702 693.963,450.536 690.5,454.5C 689.833,454.5 689.5,454.833 689.5,455.5C 688.206,456.29 687.039,457.29 686,458.5C 685.667,458.167 685.333,457.833 685,457.5C 684.5,413.501 684.333,369.501 684.5,325.5C 625.832,325.667 567.166,325.5 508.5,325C 507.465,323.493 507.632,321.993 509,320.5C 513.447,315.451 518.28,311.118 523.5,307.5C 523.281,306.325 523.614,305.325 524.5,304.5C 528.633,301.204 532.633,297.704 536.5,294C 536.167,293.667 535.833,293.333 535.5,293C 539.479,290.09 543.145,286.923 546.5,283.5C 547.5,283.167 548.167,282.5 548.5,281.5C 549.5,281.167 550.167,280.5 550.5,279.5C 551.833,278.833 552.833,277.833 553.5,276.5C 555.5,275.167 557.167,273.5 558.5,271.5C 561.167,269.5 563.5,267.167 565.5,264.5C 567.5,263.167 569.167,261.5 570.5,259.5C 574.167,256.5 577.5,253.167 580.5,249.5C 583.167,247.5 585.5,245.167 587.5,242.5C 588.833,241.833 589.833,240.833 590.5,239.5C 593.167,237.5 595.5,235.167 597.5,232.5C 598.833,231.833 599.833,230.833 600.5,229.5C 604.833,225.833 608.833,221.833 612.5,217.5C 613.5,217.167 614.167,216.5 614.5,215.5C 616.5,214.167 618.167,212.5 619.5,210.5C 620.833,209.833 621.833,208.833 622.5,207.5C 625.833,204.833 628.833,201.833 631.5,198.5C 632.833,197.833 633.833,196.833 634.5,195.5C 650.05,180.787 664.717,165.954 678.5,151C 678.167,150.667 677.833,150.333 677.5,150C 679.705,147.46 682.205,145.293 685,143.5C 686.976,144.543 687.476,145.877 686.5,147.5C 686.846,148.696 687.346,148.696 688,147.5C 688.5,206.166 688.667,264.832 688.5,323.5C 726.835,323.667 765.168,323.5 803.5,323C 800.063,322.351 799.896,321.851 803,321.5C 803.833,321.667 804.667,321.833 805.5,322C 805.167,322.333 804.833,322.667 804.5,323C 808.5,323.333 812.5,323.667 816.5,324C 816.833,324.333 817.167,324.667 817.5,325C 815.627,326.704 813.96,328.537 812.5,330.5 Z"/></g>
<g><path style="opacity:1" fill="#f9faf9" d="M 264.5,363.5 C 261.138,359.808 257.805,356.141 254.5,352.5C 244.683,343.274 235.683,333.941 227.5,324.5C 226.833,323.167 225.833,322.167 224.5,321.5C 224.167,320.5 223.5,319.833 222.5,319.5C 221.833,318.167 220.833,317.167 219.5,316.5C 219.167,315.5 218.5,314.833 217.5,314.5C 217.167,313.167 216.833,313.167 216.5,314.5C 216.262,312.522 214.929,310.855 212.5,309.5C 197.81,293.144 182.476,277.477 166.5,262.5C 162.255,257.588 157.588,252.922 152.5,248.5C 148.5,243.833 144.167,239.5 139.5,235.5C 139.167,234.5 138.5,233.833 137.5,233.5C 134.5,229.833 131.167,226.5 127.5,223.5C 124.167,219.5 120.5,215.833 116.5,212.5C 111.833,207.167 106.833,202.167 101.5,197.5C 94.0282,189.542 87.0282,182.376 80.5,176C 73.6667,169.167 66.8333,162.333 60,155.5C 59.5172,154.552 59.3505,153.552 59.5,152.5C 61.1992,152.66 62.8659,152.494 64.5,152C 63.5,151.667 62.5,151.333 61.5,151C 130.169,150.167 198.836,150.333 267.5,151.5C 267.808,152.308 268.308,152.975 269,153.5C 269.667,224.167 269.667,294.833 269,365.5C 268.667,365.833 268.333,366.167 268,366.5C 266.961,365.29 265.794,364.29 264.5,363.5 Z"/></g>
<g><path style="opacity:1" fill="#f9faf9" d="M 270.5,154.5 C 271.665,223.665 271.832,292.999 271,362.5C 270.5,293.167 270.333,223.834 270.5,154.5 Z"/></g>
<g><path style="opacity:1" fill="#f9faf9" d="M 362.5,154.5 C 361.833,155.167 361.833,155.167 362.5,154.5 Z"/></g>
<g><path style="opacity:1" fill="#f9faf9" d="M 372.5,164.5 C 371.833,165.167 371.833,165.167 372.5,164.5 Z"/></g>
<g><path style="opacity:1" fill="#f9faf9" d="M 377.5,169.5 C 376.833,170.167 376.833,170.167 377.5,169.5 Z"/></g>
<g><path style="opacity:1" fill="#f9faf9" d="M 634.5,195.5 C 633.833,194.167 633.833,194.167 634.5,195.5 Z"/></g>
<g><path style="opacity:1" fill="#f9faf9" d="M 101.5,197.5 C 100.833,198.167 100.833,198.167 101.5,197.5 Z"/></g>
<g><path style="opacity:1" fill="#f9faf9" d="M 631.5,198.5 C 630.833,197.167 630.833,197.167 631.5,198.5 Z"/></g>
<g><path style="opacity:1" fill="#f9faf9" d="M 622.5,207.5 C 621.833,206.167 621.833,206.167 622.5,207.5 Z"/></g>
<g><path style="opacity:1" fill="#f9faf9" d="M 335.5,216.5 C 336.5,218.167 337.833,219.5 339.5,220.5C 339.833,221.5 340.5,222.167 341.5,222.5C 342.167,223.833 343.167,224.833 344.5,225.5C 347.167,228.833 350.167,231.833 353.5,234.5C 354.167,235.833 355.167,236.833 356.5,237.5C 356.833,238.5 357.5,239.167 358.5,239.5C 359.833,241.5 361.5,243.167 363.5,244.5C 366.167,247.833 369.167,250.833 372.5,253.5C 377.473,259.14 382.806,264.473 388.5,269.5C 392.133,273.799 396.133,277.799 400.5,281.5C 403.462,284.964 406.629,288.297 410,291.5C 410.333,291.167 410.667,290.833 411,290.5C 412.74,291.716 413.74,293.382 414,295.5C 414.333,295.167 414.667,294.833 415,294.5C 416.604,298.268 419.104,301.268 422.5,303.5C 422.833,304.5 423.5,305.167 424.5,305.5C 425.542,307.791 427.042,308.791 429,308.5C 430.487,309.253 430.654,310.086 429.5,311C 430.373,312.045 431.373,312.878 432.5,313.5C 432.833,314.5 433.5,315.167 434.5,315.5C 436.167,317.833 438.167,319.833 440.5,321.5C 441.833,323.5 443.5,325.167 445.5,326.5C 446.167,327.833 447.167,328.833 448.5,329.5C 449.167,330.833 450.167,331.833 451.5,332.5C 452.167,333.833 453.167,334.833 454.5,335.5C 454.833,336.5 455.5,337.167 456.5,337.5C 459.5,341.167 462.833,344.5 466.5,347.5C 466.833,348.5 467.5,349.167 468.5,349.5C 469.167,350.833 470.167,351.833 471.5,352.5C 472.167,353.833 473.167,354.833 474.5,355.5C 474.833,356.5 475.5,357.167 476.5,357.5C 479.5,361.167 482.833,364.5 486.5,367.5C 486.833,368.5 487.5,369.167 488.5,369.5C 489.167,370.833 490.167,371.833 491.5,372.5C 495.167,376.833 499.167,380.833 503.5,384.5C 503.833,385.5 504.5,386.167 505.5,386.5C 506.167,387.833 507.167,388.833 508.5,389.5C 512.167,393.833 516.167,397.833 520.5,401.5C 521.833,403.5 523.5,405.167 525.5,406.5C 529.167,410.833 533.167,414.833 537.5,418.5C 538.167,419.833 539.167,420.833 540.5,421.5C 541.833,423.5 543.5,425.167 545.5,426.5C 545.833,427.5 546.5,428.167 547.5,428.5C 547.833,429.5 548.5,430.167 549.5,430.5C 550.287,432.104 551.62,432.771 553.5,432.5C 553.5,433.5 553.5,434.5 553.5,435.5C 554.552,435.351 555.552,435.517 556.5,436C 559.55,439.794 562.217,443.294 564.5,446.5C 566.5,449.167 568.833,451.5 571.5,453.5C 572.81,455.148 574.143,456.814 575.5,458.5C 575.291,459.086 574.957,459.586 574.5,460C 570.324,460.427 566.158,460.927 562,461.5C 483.823,460.344 405.656,460.177 327.5,461C 326.667,460.167 325.833,459.333 325,458.5C 324.333,375.167 324.333,291.833 325,208.5C 325.414,208.043 325.914,207.709 326.5,207.5C 327.769,209.18 329.436,210.347 331.5,211C 331.574,213.315 332.908,215.149 335.5,216.5 Z"/></g>
<g><path style="opacity:1" fill="#f9faf9" d="M 619.5,210.5 C 618.833,209.167 618.833,209.167 619.5,210.5 Z"/></g>
<g><path style="opacity:1" fill="#f9faf9" d="M 116.5,212.5 C 115.833,213.167 115.833,213.167 116.5,212.5 Z"/></g>
<g><path style="opacity:1" fill="#f9faf9" d="M 614.5,215.5 C 613.833,214.167 613.833,214.167 614.5,215.5 Z"/></g>
<g><path style="opacity:1" fill="#f9faf9" d="M 335.5,215.5 C 336.833,216.167 336.833,216.167 335.5,215.5 Z"/></g>
<g><path style="opacity:1" fill="#f9faf9" d="M 612.5,217.5 C 611.833,216.167 611.833,216.167 612.5,217.5 Z"/></g>
<g><path style="opacity:1" fill="#f9faf9" d="M 339.5,219.5 C 340.833,220.167 340.833,220.167 339.5,219.5 Z"/></g>
<g><path style="opacity:1" fill="#f9faf9" d="M 341.5,221.5 C 342.833,222.167 342.833,222.167 341.5,221.5 Z"/></g>
<g><path style="opacity:1" fill="#f9faf9" d="M 127.5,223.5 C 126.833,224.167 126.833,224.167 127.5,223.5 Z"/></g>
<g><path style="opacity:1" fill="#f9faf9" d="M 344.5,224.5 C 345.833,225.167 345.833,225.167 344.5,224.5 Z"/></g>
<g><path style="opacity:1" fill="#f9faf9" d="M 600.5,229.5 C 599.833,228.167 599.833,228.167 600.5,229.5 Z"/></g>
<g><path style="opacity:1" fill="#f9faf9" d="M 597.5,232.5 C 596.833,231.167 596.833,231.167 597.5,232.5 Z"/></g>
<g><path style="opacity:1" fill="#f9faf9" d="M 137.5,233.5 C 136.833,234.167 136.833,234.167 137.5,233.5 Z"/></g>
<g><path style="opacity:1" fill="#f9faf9" d="M 353.5,233.5 C 354.833,234.167 354.833,234.167 353.5,233.5 Z"/></g>
<g><path style="opacity:1" fill="#f9faf9" d="M 139.5,235.5 C 138.833,236.167 138.833,236.167 139.5,235.5 Z"/></g>
<g><path style="opacity:1" fill="#f9faf9" d="M 356.5,236.5 C 357.833,237.167 357.833,237.167 356.5,236.5 Z"/></g>
<g><path style="opacity:1" fill="#f9faf9" d="M 358.5,238.5 C 359.833,239.167 359.833,239.167 358.5,238.5 Z"/></g>
<g><path style="opacity:1" fill="#f9faf9" d="M 590.5,239.5 C 589.833,238.167 589.833,238.167 590.5,239.5 Z"/></g>
<g><path style="opacity:1" fill="#f9faf9" d="M 587.5,242.5 C 586.833,241.167 586.833,241.167 587.5,242.5 Z"/></g>
<g><path style="opacity:1" fill="#f9faf9" d="M 363.5,243.5 C 364.833,244.167 364.833,244.167 363.5,243.5 Z"/></g>
<g><path style="opacity:1" fill="#f9faf9" d="M 152.5,248.5 C 151.833,249.167 151.833,249.167 152.5,248.5 Z"/></g>
<g><path style="opacity:1" fill="#f9faf9" d="M 580.5,249.5 C 579.833,248.167 579.833,248.167 580.5,249.5 Z"/></g>
<g><path style="opacity:1" fill="#f9faf9" d="M 372.5,252.5 C 373.833,253.167 373.833,253.167 372.5,252.5 Z"/></g>
<g><path style="opacity:1" fill="#f9faf9" d="M 570.5,259.5 C 569.833,258.167 569.833,258.167 570.5,259.5 Z"/></g>
<g><path style="opacity:1" fill="#f9faf9" d="M 166.5,262.5 C 165.833,263.167 165.833,263.167 166.5,262.5 Z"/></g>
<g><path style="opacity:1" fill="#f9faf9" d="M 565.5,264.5 C 564.833,263.167 564.833,263.167 565.5,264.5 Z"/></g>
<g><path style="opacity:1" fill="#f9faf9" d="M 388.5,268.5 C 389.833,269.167 389.833,269.167 388.5,268.5 Z"/></g>
<g><path style="opacity:1" fill="#f9faf9" d="M 558.5,271.5 C 557.833,270.167 557.833,270.167 558.5,271.5 Z"/></g>
<g><path style="opacity:1" fill="#f9faf9" d="M 553.5,276.5 C 552.833,275.167 552.833,275.167 553.5,276.5 Z"/></g>
<g><path style="opacity:1" fill="#f9faf9" d="M 550.5,279.5 C 549.833,278.167 549.833,278.167 550.5,279.5 Z"/></g>
<g><path style="opacity:1" fill="#f9faf9" d="M 400.5,280.5 C 401.833,281.167 401.833,281.167 400.5,280.5 Z"/></g>
<g><path style="opacity:1" fill="#f9faf9" d="M 548.5,281.5 C 547.833,280.167 547.833,280.167 548.5,281.5 Z"/></g>
<g><path style="opacity:1" fill="#f9faf9" d="M 546.5,283.5 C 545.833,282.167 545.833,282.167 546.5,283.5 Z"/></g>
<g><path style="opacity:1" fill="#f9faf9" d="M 422.5,302.5 C 423.833,303.167 423.833,303.167 422.5,302.5 Z"/></g>
<g><path style="opacity:1" fill="#f9faf9" d="M 424.5,304.5 C 425.833,305.167 425.833,305.167 424.5,304.5 Z"/></g>
<g><path style="opacity:1" fill="#f9faf9" d="M 212.5,309.5 C 211.833,310.167 211.833,310.167 212.5,309.5 Z"/></g>
<g><path style="opacity:1" fill="#f9faf9" d="M 432.5,312.5 C 433.833,313.167 433.833,313.167 432.5,312.5 Z"/></g>
<g><path style="opacity:1" fill="#f9faf9" d="M 216.5,314.5 C 216.833,314.5 217.167,314.5 217.5,314.5C 217.315,315.17 216.981,315.17 216.5,314.5 Z"/></g>
<g><path style="opacity:1" fill="#f9faf9" d="M 434.5,314.5 C 435.833,315.167 435.833,315.167 434.5,314.5 Z"/></g>
<g><path style="opacity:1" fill="#f9faf9" d="M 219.5,316.5 C 218.833,317.167 218.833,317.167 219.5,316.5 Z"/></g>
<g><path style="opacity:1" fill="#f9faf9" d="M 222.5,319.5 C 221.833,320.167 221.833,320.167 222.5,319.5 Z"/></g>
<g><path style="opacity:1" fill="#f9faf9" d="M 440.5,320.5 C 441.833,321.167 441.833,321.167 440.5,320.5 Z"/></g>
<g><path style="opacity:1" fill="#f9faf9" d="M 224.5,321.5 C 223.833,322.167 223.833,322.167 224.5,321.5 Z"/></g>
<g><path style="opacity:1" fill="#f9faf9" d="M 227.5,324.5 C 226.833,325.167 226.833,325.167 227.5,324.5 Z"/></g>
<g><path style="opacity:1" fill="#f9faf9" d="M 445.5,325.5 C 446.833,326.167 446.833,326.167 445.5,325.5 Z"/></g>
<g><path style="opacity:1" fill="#f9faf9" d="M 518.5,326.5 C 519.833,327.167 519.833,327.167 518.5,326.5 Z"/></g>
<g><path style="opacity:1" fill="#f9faf9" d="M 680.5,326.5 C 681.5,326.5 682.5,326.5 683.5,326.5C 683.667,369.835 683.5,413.168 683,456.5C 682.667,414.167 682.333,371.833 682,329.5C 680.961,328.756 680.461,327.756 680.5,326.5 Z"/></g>
<g><path style="opacity:1" fill="#f9faf9" d="M 448.5,328.5 C 449.833,329.167 449.833,329.167 448.5,328.5 Z"/></g>
<g><path style="opacity:1" fill="#f9faf9" d="M 812.5,330.5 C 813.833,331.167 813.833,331.167 812.5,330.5 Z"/></g>
<g><path style="opacity:1" fill="#f9faf9" d="M 451.5,331.5 C 452.833,332.167 452.833,332.167 451.5,331.5 Z"/></g>
<g><path style="opacity:1" fill="#f9faf9" d="M 454.5,334.5 C 455.833,335.167 455.833,335.167 454.5,334.5 Z"/></g>
<g><path style="opacity:1" fill="#f9faf9" d="M 456.5,336.5 C 457.833,337.167 457.833,337.167 456.5,336.5 Z"/></g>
<g><path style="opacity:1" fill="#f9faf9" d="M 802.5,340.5 C 803.833,341.167 803.833,341.167 802.5,340.5 Z"/></g>
<g><path style="opacity:1" fill="#f9faf9" d="M 801.5,341.5 C 801.833,341.5 802.167,341.5 802.5,341.5C 802.315,342.17 801.981,342.17 801.5,341.5 Z"/></g>
<g><path style="opacity:1" fill="#f9faf9" d="M 800.5,342.5 C 800.833,342.5 801.167,342.5 801.5,342.5C 801.315,343.17 800.981,343.17 800.5,342.5 Z"/></g>
<g><path style="opacity:1" fill="#f9faf9" d="M 799.5,343.5 C 799.833,343.5 800.167,343.5 800.5,343.5C 800.315,344.17 799.981,344.17 799.5,343.5 Z"/></g>
<g><path style="opacity:1" fill="#f9faf9" d="M 798.5,344.5 C 798.833,344.5 799.167,344.5 799.5,344.5C 799.315,345.17 798.981,345.17 798.5,344.5 Z"/></g>
<g><path style="opacity:1" fill="#f9faf9" d="M 797.5,345.5 C 797.833,345.5 798.167,345.5 798.5,345.5C 798.315,346.17 797.981,346.17 797.5,345.5 Z"/></g>
<g><path style="opacity:1" fill="#f9faf9" d="M 466.5,346.5 C 467.833,347.167 467.833,347.167 466.5,346.5 Z"/></g>
<g><path style="opacity:1" fill="#f9faf9" d="M 468.5,348.5 C 469.833,349.167 469.833,349.167 468.5,348.5 Z"/></g>
<g><path style="opacity:1" fill="#f9faf9" d="M 794.5,348.5 C 795.833,349.167 795.833,349.167 794.5,348.5 Z"/></g>
<g><path style="opacity:1" fill="#f9faf9" d="M 792.5,350.5 C 793.833,351.167 793.833,351.167 792.5,350.5 Z"/></g>
<g><path style="opacity:1" fill="#f9faf9" d="M 471.5,351.5 C 472.833,352.167 472.833,352.167 471.5,351.5 Z"/></g>
<g><path style="opacity:1" fill="#f9faf9" d="M 791.5,351.5 C 791.833,351.5 792.167,351.5 792.5,351.5C 792.315,352.17 791.981,352.17 791.5,351.5 Z"/></g>
<g><path style="opacity:1" fill="#f9faf9" d="M 254.5,352.5 C 253.833,353.167 253.833,353.167 254.5,352.5 Z"/></g>
<g><path style="opacity:1" fill="#f9faf9" d="M 790.5,352.5 C 790.833,352.5 791.167,352.5 791.5,352.5C 791.315,353.17 790.981,353.17 790.5,352.5 Z"/></g>
<g><path style="opacity:1" fill="#f9faf9" d="M 789.5,353.5 C 789.833,353.5 790.167,353.5 790.5,353.5C 790.315,354.17 789.981,354.17 789.5,353.5 Z"/></g>
<g><path style="opacity:1" fill="#f9faf9" d="M 474.5,354.5 C 475.833,355.167 475.833,355.167 474.5,354.5 Z"/></g>
<g><path style="opacity:1" fill="#f9faf9" d="M 476.5,356.5 C 477.833,357.167 477.833,357.167 476.5,356.5 Z"/></g>
<g><path style="opacity:1" fill="#f9faf9" d="M 784.5,358.5 C 784.833,358.5 785.167,358.5 785.5,358.5C 785.315,359.17 784.981,359.17 784.5,358.5 Z"/></g>
<g><path style="opacity:1" fill="#f9faf9" d="M 783.5,359.5 C 783.833,359.5 784.167,359.5 784.5,359.5C 784.315,360.17 783.981,360.17 783.5,359.5 Z"/></g>
<g><path style="opacity:1" fill="#f9faf9" d="M 264.5,363.5 C 263.833,364.167 263.833,364.167 264.5,363.5 Z"/></g>
<g><path style="opacity:1" fill="#f9faf9" d="M 486.5,366.5 C 487.833,367.167 487.833,367.167 486.5,366.5 Z"/></g>
<g><path style="opacity:1" fill="#f9faf9" d="M 488.5,368.5 C 489.833,369.167 489.833,369.167 488.5,368.5 Z"/></g>
<g><path style="opacity:1" fill="#f9faf9" d="M 491.5,371.5 C 492.833,372.167 492.833,372.167 491.5,371.5 Z"/></g>
<g><path style="opacity:1" fill="#f9faf9" d="M 766.5,377.5 C 766.833,377.5 767.167,377.5 767.5,377.5C 767.315,378.17 766.981,378.17 766.5,377.5 Z"/></g>
<g><path style="opacity:1" fill="#f9faf9" d="M 765.5,378.5 C 765.833,378.5 766.167,378.5 766.5,378.5C 766.315,379.17 765.981,379.17 765.5,378.5 Z"/></g>
<g><path style="opacity:1" fill="#f9faf9" d="M 764.5,379.5 C 764.833,379.5 765.167,379.5 765.5,379.5C 765.315,380.17 764.981,380.17 764.5,379.5 Z"/></g>
<g><path style="opacity:1" fill="#f9faf9" d="M 763.5,380.5 C 763.833,380.5 764.167,380.5 764.5,380.5C 764.315,381.17 763.981,381.17 763.5,380.5 Z"/></g>
<g><path style="opacity:1" fill="#f9faf9" d="M 762.5,381.5 C 762.833,381.5 763.167,381.5 763.5,381.5C 763.315,382.17 762.981,382.17 762.5,381.5 Z"/></g>
<g><path style="opacity:1" fill="#f9faf9" d="M 761.5,382.5 C 761.833,382.5 762.167,382.5 762.5,382.5C 762.315,383.17 761.981,383.17 761.5,382.5 Z"/></g>
<g><path style="opacity:1" fill="#f9faf9" d="M 503.5,383.5 C 504.833,384.167 504.833,384.167 503.5,383.5 Z"/></g>
<g><path style="opacity:1" fill="#f9faf9" d="M 760.5,383.5 C 760.833,383.5 761.167,383.5 761.5,383.5C 761.315,384.17 760.981,384.17 760.5,383.5 Z"/></g>
<g><path style="opacity:1" fill="#f9faf9" d="M 759.5,384.5 C 759.833,384.5 760.167,384.5 760.5,384.5C 760.315,385.17 759.981,385.17 759.5,384.5 Z"/></g>
<g><path style="opacity:1" fill="#f9faf9" d="M 505.5,385.5 C 506.833,386.167 506.833,386.167 505.5,385.5 Z"/></g>
<g><path style="opacity:1" fill="#f9faf9" d="M 758.5,385.5 C 758.833,385.5 759.167,385.5 759.5,385.5C 759.315,386.17 758.981,386.17 758.5,385.5 Z"/></g>
<g><path style="opacity:1" fill="#f9faf9" d="M 757.5,386.5 C 757.833,386.5 758.167,386.5 758.5,386.5C 758.315,387.17 757.981,387.17 757.5,386.5 Z"/></g>
<g><path style="opacity:1" fill="#f9faf9" d="M 756.5,387.5 C 756.833,387.5 757.167,387.5 757.5,387.5C 757.315,388.17 756.981,388.17 756.5,387.5 Z"/></g>
<g><path style="opacity:1" fill="#f9faf9" d="M 508.5,388.5 C 509.833,389.167 509.833,389.167 508.5,388.5 Z"/></g>
<g><path style="opacity:1" fill="#f9faf9" d="M 755.5,388.5 C 755.833,388.5 756.167,388.5 756.5,388.5C 756.315,389.17 755.981,389.17 755.5,388.5 Z"/></g>
<g><path style="opacity:1" fill="#f9faf9" d="M 754.5,389.5 C 754.833,389.5 755.167,389.5 755.5,389.5C 755.315,390.17 754.981,390.17 754.5,389.5 Z"/></g>
<g><path style="opacity:1" fill="#f9faf9" d="M 753.5,390.5 C 753.833,390.5 754.167,390.5 754.5,390.5C 754.315,391.17 753.981,391.17 753.5,390.5 Z"/></g>
<g><path style="opacity:1" fill="#f9faf9" d="M 752.5,391.5 C 752.833,391.5 753.167,391.5 753.5,391.5C 753.315,392.17 752.981,392.17 752.5,391.5 Z"/></g>
<g><path style="opacity:1" fill="#f9faf9" d="M 751.5,392.5 C 751.833,392.5 752.167,392.5 752.5,392.5C 752.315,393.17 751.981,393.17 751.5,392.5 Z"/></g>
<g><path style="opacity:1" fill="#f9faf9" d="M 750.5,393.5 C 750.833,393.5 751.167,393.5 751.5,393.5C 751.315,394.17 750.981,394.17 750.5,393.5 Z"/></g>
<g><path style="opacity:1" fill="#f9faf9" d="M 749.5,394.5 C 749.833,394.5 750.167,394.5 750.5,394.5C 750.315,395.17 749.981,395.17 749.5,394.5 Z"/></g>
<g><path style="opacity:1" fill="#f9faf9" d="M 748.5,395.5 C 748.833,395.5 749.167,395.5 749.5,395.5C 749.315,396.17 748.981,396.17 748.5,395.5 Z"/></g>
<g><path style="opacity:1" fill="#f9faf9" d="M 747.5,396.5 C 747.833,396.5 748.167,396.5 748.5,396.5C 748.315,397.17 747.981,397.17 747.5,396.5 Z"/></g>
<g><path style="opacity:1" fill="#f9faf9" d="M 746.5,397.5 C 746.833,397.5 747.167,397.5 747.5,397.5C 747.315,398.17 746.981,398.17 746.5,397.5 Z"/></g>
<g><path style="opacity:1" fill="#f9faf9" d="M 745.5,398.5 C 745.833,398.5 746.167,398.5 746.5,398.5C 746.315,399.17 745.981,399.17 745.5,398.5 Z"/></g>
<g><path style="opacity:1" fill="#f9faf9" d="M 744.5,399.5 C 744.833,399.5 745.167,399.5 745.5,399.5C 745.315,400.17 744.981,400.17 744.5,399.5 Z"/></g>
<g><path style="opacity:1" fill="#f9faf9" d="M 520.5,400.5 C 521.833,401.167 521.833,401.167 520.5,400.5 Z"/></g>
<g><path style="opacity:1" fill="#f9faf9" d="M 743.5,400.5 C 743.833,400.5 744.167,400.5 744.5,400.5C 744.315,401.17 743.981,401.17 743.5,400.5 Z"/></g>
<g><path style="opacity:1" fill="#f9faf9" d="M 742.5,401.5 C 742.833,401.5 743.167,401.5 743.5,401.5C 743.315,402.17 742.981,402.17 742.5,401.5 Z"/></g>
<g><path style="opacity:1" fill="#f9faf9" d="M 741.5,402.5 C 741.833,402.5 742.167,402.5 742.5,402.5C 742.315,403.17 741.981,403.17 741.5,402.5 Z"/></g>
<g><path style="opacity:1" fill="#f9faf9" d="M 740.5,403.5 C 740.833,403.5 741.167,403.5 741.5,403.5C 741.315,404.17 740.981,404.17 740.5,403.5 Z"/></g>
<g><path style="opacity:1" fill="#f9faf9" d="M 739.5,404.5 C 739.833,404.5 740.167,404.5 740.5,404.5C 740.315,405.17 739.981,405.17 739.5,404.5 Z"/></g>
<g><path style="opacity:1" fill="#f9faf9" d="M 525.5,405.5 C 526.833,406.167 526.833,406.167 525.5,405.5 Z"/></g>
<g><path style="opacity:1" fill="#f9faf9" d="M 738.5,405.5 C 738.833,405.5 739.167,405.5 739.5,405.5C 739.315,406.17 738.981,406.17 738.5,405.5 Z"/></g>
<g><path style="opacity:1" fill="#f9faf9" d="M 737.5,406.5 C 737.833,406.5 738.167,406.5 738.5,406.5C 738.315,407.17 737.981,407.17 737.5,406.5 Z"/></g>
<g><path style="opacity:1" fill="#f9faf9" d="M 736.5,407.5 C 736.833,407.5 737.167,407.5 737.5,407.5C 737.315,408.17 736.981,408.17 736.5,407.5 Z"/></g>
<g><path style="opacity:1" fill="#f9faf9" d="M 735.5,408.5 C 735.833,408.5 736.167,408.5 736.5,408.5C 736.315,409.17 735.981,409.17 735.5,408.5 Z"/></g>
<g><path style="opacity:1" fill="#f9faf9" d="M 734.5,409.5 C 734.833,409.5 735.167,409.5 735.5,409.5C 735.315,410.17 734.981,410.17 734.5,409.5 Z"/></g>
<g><path style="opacity:1" fill="#f9faf9" d="M 733.5,410.5 C 733.833,410.5 734.167,410.5 734.5,410.5C 734.315,411.17 733.981,411.17 733.5,410.5 Z"/></g>
<g><path style="opacity:1" fill="#f9faf9" d="M 732.5,411.5 C 732.833,411.5 733.167,411.5 733.5,411.5C 733.315,412.17 732.981,412.17 732.5,411.5 Z"/></g>
<g><path style="opacity:1" fill="#f9faf9" d="M 731.5,412.5 C 731.833,412.5 732.167,412.5 732.5,412.5C 732.315,413.17 731.981,413.17 731.5,412.5 Z"/></g>
<g><path style="opacity:1" fill="#f9faf9" d="M 730.5,413.5 C 730.833,413.5 731.167,413.5 731.5,413.5C 731.315,414.17 730.981,414.17 730.5,413.5 Z"/></g>
<g><path style="opacity:1" fill="#f9faf9" d="M 729.5,414.5 C 729.833,414.5 730.167,414.5 730.5,414.5C 730.315,415.17 729.981,415.17 729.5,414.5 Z"/></g>
<g><path style="opacity:1" fill="#f9faf9" d="M 728.5,415.5 C 728.833,415.5 729.167,415.5 729.5,415.5C 729.315,416.17 728.981,416.17 728.5,415.5 Z"/></g>
<g><path style="opacity:1" fill="#f9faf9" d="M 727.5,416.5 C 727.833,416.5 728.167,416.5 728.5,416.5C 728.315,417.17 727.981,417.17 727.5,416.5 Z"/></g>
<g><path style="opacity:1" fill="#f9faf9" d="M 537.5,417.5 C 538.833,418.167 538.833,418.167 537.5,417.5 Z"/></g>
<g><path style="opacity:1" fill="#f9faf9" d="M 726.5,417.5 C 726.833,417.5 727.167,417.5 727.5,417.5C 727.315,418.17 726.981,418.17 726.5,417.5 Z"/></g>
<g><path style="opacity:1" fill="#f9faf9" d="M 725.5,418.5 C 725.833,418.5 726.167,418.5 726.5,418.5C 726.315,419.17 725.981,419.17 725.5,418.5 Z"/></g>
<g><path style="opacity:1" fill="#f9faf9" d="M 724.5,419.5 C 724.833,419.5 725.167,419.5 725.5,419.5C 725.315,420.17 724.981,420.17 724.5,419.5 Z"/></g>
<g><path style="opacity:1" fill="#f9faf9" d="M 540.5,420.5 C 541.833,421.167 541.833,421.167 540.5,420.5 Z"/></g>
<g><path style="opacity:1" fill="#f9faf9" d="M 545.5,425.5 C 546.833,426.167 546.833,426.167 545.5,425.5 Z"/></g>
<g><path style="opacity:1" fill="#f9faf9" d="M 547.5,427.5 C 548.833,428.167 548.833,428.167 547.5,427.5 Z"/></g>
<g><path style="opacity:1" fill="#f9faf9" d="M 549.5,429.5 C 550.833,430.167 550.833,430.167 549.5,429.5 Z"/></g>
<g><path style="opacity:1" fill="#f9faf9" d="M 564.5,445.5 C 565.833,446.167 565.833,446.167 564.5,445.5 Z"/></g>
<g><path style="opacity:1" fill="#f9faf9" d="M 571.5,452.5 C 572.833,453.167 572.833,453.167 571.5,452.5 Z"/></g>
<g><path style="opacity:1" fill="#f9faf9" d="M 690.5,454.5 C 691.833,455.167 691.833,455.167 690.5,454.5 Z"/></g>
<g><path style="opacity:1" fill="#f9faf9" d="M 689.5,455.5 C 689.833,455.5 690.167,455.5 690.5,455.5C 690.315,456.17 689.981,456.17 689.5,455.5 Z"/></g>
</svg>
